<svg id="visual" viewBox="0 0 900 600" width="900" height="600" xmlns="http://www.w3.org/2000/svg" xmlns:xlink="http://www.w3.org/1999/xlink" version="1.1"><g stroke-width="1" stroke-linejoin="bevel"><path d="M399.3 296L371.1 229L336.3 291Z" fill="#205a7a" stroke="#205a7a"></path><path d="M491.9 225L368.1 183L371.1 229Z" fill="#1d4e6b" stroke="#1d4e6b"></path><path d="M371.1 229L249.5 234L336.3 291Z" fill="#081a28" stroke="#081a28"></path><path d="M336.3 291L368.3 386L399.3 296Z" fill="#0c2435" stroke="#0c2435"></path><path d="M336.3 291L345.3 385L368.3 386Z" fill="#297ea6" stroke="#297ea6"></path><path d="M368.3 386L413.1 385L399.3 296Z" fill="#15384f" stroke="#15384f"></path><path d="M292.5 168L249.5 234L371.1 229Z" fill="#0c2435" stroke="#0c2435"></path><path d="M336.3 291L230.6 269L345.3 385Z" fill="#19435d" stroke="#19435d"></path><path d="M457.9 362L464.1 354L399.3 296Z" fill="#297ea6" stroke="#297ea6"></path><path d="M399.3 296L491.9 225L371.1 229Z" fill="#246688" stroke="#246688"></path><path d="M368.1 183L292.5 168L371.1 229Z" fill="#297ea6" stroke="#297ea6"></path><path d="M413.1 385L457.9 362L399.3 296Z" fill="#0c2435" stroke="#0c2435"></path><path d="M464.1 354L491.9 225L399.3 296Z" fill="#19435d" stroke="#19435d"></path><path d="M413.1 385L453.9 372L457.9 362Z" fill="#205a7a" stroke="#205a7a"></path><path d="M457.9 362L453.9 372L464.1 354Z" fill="#277297" stroke="#277297"></path><path d="M249.5 234L230.6 269L336.3 291Z" fill="#246688" stroke="#246688"></path><path d="M292.5 168L237.5 207L249.5 234Z" fill="#19435d" stroke="#19435d"></path><path d="M249.5 234L237.5 207L230.6 269Z" fill="#15384f" stroke="#15384f"></path><path d="M586.5 251L534.7 255L608.5 409Z" fill="#112e42" stroke="#112e42"></path><path d="M464.1 354L534.7 255L491.9 225Z" fill="#112e42" stroke="#112e42"></path><path d="M548.7 215L462.1 124L491.9 225Z" fill="#00101c" stroke="#00101c"></path><path d="M491.9 225L462.1 124L368.1 183Z" fill="#277297" stroke="#277297"></path><path d="M368.1 183L304.5 88L292.5 168Z" fill="#246688" stroke="#246688"></path><path d="M462.1 124L400.3 88L368.1 183Z" fill="#00101c" stroke="#00101c"></path><path d="M292.5 168L166.6 64L237.5 207Z" fill="#081a28" stroke="#081a28"></path><path d="M534.7 255L548.7 215L491.9 225Z" fill="#19435d" stroke="#19435d"></path><path d="M400.3 88L304.5 88L368.1 183Z" fill="#277297" stroke="#277297"></path><path d="M413.1 385L482.1 427L453.9 372Z" fill="#297ea6" stroke="#297ea6"></path><path d="M453.9 372L482.1 427L464.1 354Z" fill="#081a28" stroke="#081a28"></path><path d="M534.7 255L586.5 251L548.7 215Z" fill="#15384f" stroke="#15384f"></path><path d="M354.1 485L482.1 427L413.1 385Z" fill="#0c2435" stroke="#0c2435"></path><path d="M354.1 485L413.1 385L368.3 386Z" fill="#297ea6" stroke="#297ea6"></path><path d="M164.6 228L230.6 269L237.5 207Z" fill="#277297" stroke="#277297"></path><path d="M164.6 228L177.5 302L230.6 269Z" fill="#081a28" stroke="#081a28"></path><path d="M230.6 269L264.5 457L345.3 385Z" fill="#205a7a" stroke="#205a7a"></path><path d="M136.8 218L164.6 228L132.6 182Z" fill="#1d4e6b" stroke="#1d4e6b"></path><path d="M177.5 302L264.5 457L230.6 269Z" fill="#15384f" stroke="#15384f"></path><path d="M345.3 385L354.1 485L368.3 386Z" fill="#1d4e6b" stroke="#1d4e6b"></path><path d="M294.3 476L354.1 485L345.3 385Z" fill="#00101c" stroke="#00101c"></path><path d="M608.5 409L534.7 255L464.1 354Z" fill="#277297" stroke="#277297"></path><path d="M548.7 215L562.9 94L462.1 124Z" fill="#112e42" stroke="#112e42"></path><path d="M264.5 457L294.3 476L345.3 385Z" fill="#0c2435" stroke="#0c2435"></path><path d="M400.3 88L369.3 48L304.5 88Z" fill="#205a7a" stroke="#205a7a"></path><path d="M436.1 0L369.3 48L400.3 88Z" fill="#246688" stroke="#246688"></path><path d="M132.6 182L164.6 228L237.5 207Z" fill="#19435d" stroke="#19435d"></path><path d="M164.6 228L119.6 322L177.5 302Z" fill="#205a7a" stroke="#205a7a"></path><path d="M264.5 457L289.5 504L294.3 476Z" fill="#15384f" stroke="#15384f"></path><path d="M294.3 476L289.5 504L354.1 485Z" fill="#277297" stroke="#277297"></path><path d="M199.6 463L289.5 504L264.5 457Z" fill="#19435d" stroke="#19435d"></path><path d="M166.6 64L132.6 182L237.5 207Z" fill="#277297" stroke="#277297"></path><path d="M166.6 64L292.5 168L304.5 88Z" fill="#00101c" stroke="#00101c"></path><path d="M136.8 218L119.6 322L164.6 228Z" fill="#246688" stroke="#246688"></path><path d="M177.5 302L199.6 463L264.5 457Z" fill="#00101c" stroke="#00101c"></path><path d="M73.8 340L119.6 322L20.8 282Z" fill="#0c2435" stroke="#0c2435"></path><path d="M102.8 377L199.6 463L177.5 302Z" fill="#081a28" stroke="#081a28"></path><path d="M634.7 134L562.9 94L548.7 215Z" fill="#081a28" stroke="#081a28"></path><path d="M462.1 124L436.1 0L400.3 88Z" fill="#112e42" stroke="#112e42"></path><path d="M439.9 550L503.9 501L482.1 427Z" fill="#15384f" stroke="#15384f"></path><path d="M482.1 427L608.5 409L464.1 354Z" fill="#205a7a" stroke="#205a7a"></path><path d="M439.9 550L482.1 427L354.1 485Z" fill="#112e42" stroke="#112e42"></path><path d="M503.9 501L585.7 438L482.1 427Z" fill="#081a28" stroke="#081a28"></path><path d="M585.7 438L608.5 409L482.1 427Z" fill="#1d4e6b" stroke="#1d4e6b"></path><path d="M491.9 1L436.1 0L462.1 124Z" fill="#1d4e6b" stroke="#1d4e6b"></path><path d="M369.3 48L280.3 0L304.5 88Z" fill="#19435d" stroke="#19435d"></path><path d="M436.1 0L280.3 0L369.3 48Z" fill="#00101c" stroke="#00101c"></path><path d="M73.8 340L102.8 377L119.6 322Z" fill="#112e42" stroke="#112e42"></path><path d="M119.6 322L102.8 377L177.5 302Z" fill="#205a7a" stroke="#205a7a"></path><path d="M237.5 0L166.6 64L304.5 88Z" fill="#112e42" stroke="#112e42"></path><path d="M393.1 600L439.9 550L354.1 485Z" fill="#246688" stroke="#246688"></path><path d="M562.9 94L491.9 1L462.1 124Z" fill="#112e42" stroke="#112e42"></path><path d="M627.5 452L620.7 427L585.7 438Z" fill="#19435d" stroke="#19435d"></path><path d="M585.7 438L620.7 427L608.5 409Z" fill="#112e42" stroke="#112e42"></path><path d="M608.5 409L679.4 269L586.5 251Z" fill="#277297" stroke="#277297"></path><path d="M586.5 251L634.7 134L548.7 215Z" fill="#112e42" stroke="#112e42"></path><path d="M558.7 518L585.7 438L503.9 501Z" fill="#1d4e6b" stroke="#1d4e6b"></path><path d="M685.5 219L634.7 134L586.5 251Z" fill="#00101c" stroke="#00101c"></path><path d="M562.9 94L526.9 0L491.9 1Z" fill="#00101c" stroke="#00101c"></path><path d="M280.3 0L237.5 0L304.5 88Z" fill="#081a28" stroke="#081a28"></path><path d="M634.7 134L627.7 112L562.9 94Z" fill="#0c2435" stroke="#0c2435"></path><path d="M32.8 350L73.8 340L20.8 282Z" fill="#15384f" stroke="#15384f"></path><path d="M119.6 322L136.8 218L20.8 282Z" fill="#297ea6" stroke="#297ea6"></path><path d="M727.4 361L679.4 269L608.5 409Z" fill="#19435d" stroke="#19435d"></path><path d="M695.5 72L626.5 0L627.7 112Z" fill="#112e42" stroke="#112e42"></path><path d="M621.7 0L526.9 0L562.9 94Z" fill="#112e42" stroke="#112e42"></path><path d="M491.9 1L526.9 0L436.1 0Z" fill="#00101c" stroke="#00101c"></path><path d="M527.9 600L558.7 518L503.9 501Z" fill="#19435d" stroke="#19435d"></path><path d="M102.8 377L133.8 478L199.6 463Z" fill="#297ea6" stroke="#297ea6"></path><path d="M295.5 600L298.3 600L289.5 504Z" fill="#246688" stroke="#246688"></path><path d="M298.3 600L393.1 600L354.1 485Z" fill="#277297" stroke="#277297"></path><path d="M99.6 484L133.8 478L102.8 377Z" fill="#246688" stroke="#246688"></path><path d="M624.5 468L627.5 452L585.7 438Z" fill="#0c2435" stroke="#0c2435"></path><path d="M620.7 427L664.4 441L608.5 409Z" fill="#205a7a" stroke="#205a7a"></path><path d="M679.4 269L685.5 219L586.5 251Z" fill="#00101c" stroke="#00101c"></path><path d="M558.7 518L624.5 468L585.7 438Z" fill="#19435d" stroke="#19435d"></path><path d="M627.5 452L664.4 441L620.7 427Z" fill="#1d4e6b" stroke="#1d4e6b"></path><path d="M298.3 600L354.1 485L289.5 504Z" fill="#1d4e6b" stroke="#1d4e6b"></path><path d="M439.9 550L506.7 600L503.9 501Z" fill="#1d4e6b" stroke="#1d4e6b"></path><path d="M295.5 600L289.5 504L216.6 600Z" fill="#112e42" stroke="#112e42"></path><path d="M216.6 600L289.5 504L199.6 463Z" fill="#277297" stroke="#277297"></path><path d="M743.4 600L664.4 441L624.5 468Z" fill="#277297" stroke="#277297"></path><path d="M624.5 468L664.4 441L627.5 452Z" fill="#1d4e6b" stroke="#1d4e6b"></path><path d="M679.4 269L723.5 280L685.5 219Z" fill="#1d4e6b" stroke="#1d4e6b"></path><path d="M0 394L99.6 484L102.8 377Z" fill="#19435d" stroke="#19435d"></path><path d="M133.8 478L216.6 600L199.6 463Z" fill="#00101c" stroke="#00101c"></path><path d="M20.8 282L136.8 218L0 242Z" fill="#15384f" stroke="#15384f"></path><path d="M73.8 340L32.8 350L102.8 377Z" fill="#00101c" stroke="#00101c"></path><path d="M0 242L136.8 218L132.6 182Z" fill="#297ea6" stroke="#297ea6"></path><path d="M727.4 361L723.5 280L679.4 269Z" fill="#1d4e6b" stroke="#1d4e6b"></path><path d="M626.5 0L621.7 0L627.7 112Z" fill="#277297" stroke="#277297"></path><path d="M393.1 600L506.7 600L439.9 550Z" fill="#112e42" stroke="#112e42"></path><path d="M558.7 518L627.5 600L624.5 468Z" fill="#112e42" stroke="#112e42"></path><path d="M99.6 484L216.6 600L133.8 478Z" fill="#15384f" stroke="#15384f"></path><path d="M121.6 0L66.8 65L166.6 64Z" fill="#112e42" stroke="#112e42"></path><path d="M166.6 64L66.8 65L132.6 182Z" fill="#246688" stroke="#246688"></path><path d="M237.5 0L121.6 0L166.6 64Z" fill="#0c2435" stroke="#0c2435"></path><path d="M506.7 600L527.9 600L503.9 501Z" fill="#081a28" stroke="#081a28"></path><path d="M627.7 112L634.7 134L695.5 72Z" fill="#081a28" stroke="#081a28"></path><path d="M627.7 112L621.7 0L562.9 94Z" fill="#246688" stroke="#246688"></path><path d="M664.4 441L727.4 361L608.5 409Z" fill="#246688" stroke="#246688"></path><path d="M0 84L0 242L132.6 182Z" fill="#277297" stroke="#277297"></path><path d="M20.8 282L0 336L32.8 350Z" fill="#19435d" stroke="#19435d"></path><path d="M695.5 72L634.7 134L760.2 124Z" fill="#0c2435" stroke="#0c2435"></path><path d="M0 242L0 336L20.8 282Z" fill="#0c2435" stroke="#0c2435"></path><path d="M32.8 350L0 394L102.8 377Z" fill="#277297" stroke="#277297"></path><path d="M742.4 184L634.7 134L685.5 219Z" fill="#246688" stroke="#246688"></path><path d="M723.5 280L742.4 184L685.5 219Z" fill="#19435d" stroke="#19435d"></path><path d="M838.2 258L742.4 184L723.5 280Z" fill="#1d4e6b" stroke="#1d4e6b"></path><path d="M0 336L0 392L32.8 350Z" fill="#246688" stroke="#246688"></path><path d="M99.6 484L20.8 600L216.6 600Z" fill="#297ea6" stroke="#297ea6"></path><path d="M0 392L0 394L32.8 350Z" fill="#081a28" stroke="#081a28"></path><path d="M66.8 65L0 84L132.6 182Z" fill="#0c2435" stroke="#0c2435"></path><path d="M0 39L0 84L66.8 65Z" fill="#112e42" stroke="#112e42"></path><path d="M800.4 117L760.2 124L742.4 184Z" fill="#205a7a" stroke="#205a7a"></path><path d="M742.4 184L760.2 124L634.7 134Z" fill="#277297" stroke="#277297"></path><path d="M695.5 72L743.4 20L626.5 0Z" fill="#19435d" stroke="#19435d"></path><path d="M121.6 0L48.8 0L66.8 65Z" fill="#112e42" stroke="#112e42"></path><path d="M527.9 600L627.5 600L558.7 518Z" fill="#246688" stroke="#246688"></path><path d="M664.4 441L765.2 444L727.4 361Z" fill="#00101c" stroke="#00101c"></path><path d="M799.4 535L765.2 444L664.4 441Z" fill="#1d4e6b" stroke="#1d4e6b"></path><path d="M727.4 361L809.2 384L723.5 280Z" fill="#0c2435" stroke="#0c2435"></path><path d="M48.8 0L0 39L66.8 65Z" fill="#0c2435" stroke="#0c2435"></path><path d="M760.2 124L743.4 20L695.5 72Z" fill="#00101c" stroke="#00101c"></path><path d="M765.2 444L809.2 384L727.4 361Z" fill="#15384f" stroke="#15384f"></path><path d="M760.2 124L800.4 117L743.4 20Z" fill="#205a7a" stroke="#205a7a"></path><path d="M838.2 258L800.4 117L742.4 184Z" fill="#205a7a" stroke="#205a7a"></path><path d="M48.8 0L0 0L0 39Z" fill="#277297" stroke="#277297"></path><path d="M811.2 0L747.4 0L743.4 20Z" fill="#19435d" stroke="#19435d"></path><path d="M743.4 20L747.4 0L626.5 0Z" fill="#205a7a" stroke="#205a7a"></path><path d="M809.2 384L838.2 258L723.5 280Z" fill="#205a7a" stroke="#205a7a"></path><path d="M0 394L0 574L99.6 484Z" fill="#19435d" stroke="#19435d"></path><path d="M0 574L20.8 600L99.6 484Z" fill="#297ea6" stroke="#297ea6"></path><path d="M0 574L0 600L20.8 600Z" fill="#277297" stroke="#277297"></path><path d="M765.2 444L839.2 465L809.2 384Z" fill="#19435d" stroke="#19435d"></path><path d="M627.5 600L743.4 600L624.5 468Z" fill="#205a7a" stroke="#205a7a"></path><path d="M743.4 600L799.4 535L664.4 441Z" fill="#205a7a" stroke="#205a7a"></path><path d="M900 295L884.2 271L900 303Z" fill="#1d4e6b" stroke="#1d4e6b"></path><path d="M799.4 535L839.2 465L765.2 444Z" fill="#112e42" stroke="#112e42"></path><path d="M884.2 271L838.2 258L900 303Z" fill="#205a7a" stroke="#205a7a"></path><path d="M900 128L868.2 84L800.4 117Z" fill="#19435d" stroke="#19435d"></path><path d="M800.4 117L811.2 0L743.4 20Z" fill="#0c2435" stroke="#0c2435"></path><path d="M868.2 84L811.2 0L800.4 117Z" fill="#081a28" stroke="#081a28"></path><path d="M900 462L900 438L839.2 465Z" fill="#081a28" stroke="#081a28"></path><path d="M743.4 600L775.2 600L799.4 535Z" fill="#19435d" stroke="#19435d"></path><path d="M900 303L838.2 258L809.2 384Z" fill="#15384f" stroke="#15384f"></path><path d="M900 202L800.4 117L838.2 258Z" fill="#1d4e6b" stroke="#1d4e6b"></path><path d="M900 438L900 303L809.2 384Z" fill="#112e42" stroke="#112e42"></path><path d="M900 202L838.2 258L884.2 271Z" fill="#277297" stroke="#277297"></path><path d="M900 295L900 202L884.2 271Z" fill="#205a7a" stroke="#205a7a"></path><path d="M900 202L900 128L800.4 117Z" fill="#081a28" stroke="#081a28"></path><path d="M868.2 84L900 0L811.2 0Z" fill="#081a28" stroke="#081a28"></path><path d="M900 128L900 119L868.2 84Z" fill="#297ea6" stroke="#297ea6"></path><path d="M900 462L839.2 465L799.4 535Z" fill="#205a7a" stroke="#205a7a"></path><path d="M839.2 465L900 438L809.2 384Z" fill="#00101c" stroke="#00101c"></path><path d="M900 600L900 462L799.4 535Z" fill="#297ea6" stroke="#297ea6"></path><path d="M900 119L900 0L868.2 84Z" fill="#246688" stroke="#246688"></path><path d="M775.2 600L900 600L799.4 535Z" fill="#00101c" stroke="#00101c"></path></g></svg>