<svg id="visual" viewBox="0 0 900 600" width="900" height="600" xmlns="http://www.w3.org/2000/svg" xmlns:xlink="http://www.w3.org/1999/xlink" version="1.1"><g stroke-width="1" stroke-linejoin="bevel"><path d="M439 309L505 189L394 235Z" fill="#440924" stroke="#440924"></path><path d="M505 189L413 141L394 235Z" fill="#bb2175" stroke="#bb2175"></path><path d="M439 309L584 254L505 189Z" fill="#ab1e69" stroke="#ab1e69"></path><path d="M557 122L527 106L505 189Z" fill="#600e35" stroke="#600e35"></path><path d="M505 189L527 106L413 141Z" fill="#bb2175" stroke="#bb2175"></path><path d="M584 254L557 122L505 189Z" fill="#510c2c" stroke="#510c2c"></path><path d="M293 403L410 415L439 309Z" fill="#600e35" stroke="#600e35"></path><path d="M439 309L543 421L584 254Z" fill="#7d1449" stroke="#7d1449"></path><path d="M557 122L528 75L527 106Z" fill="#ab1e69" stroke="#ab1e69"></path><path d="M527 106L528 75L413 141Z" fill="#600e35" stroke="#600e35"></path><path d="M410 415L543 421L439 309Z" fill="#8c1753" stroke="#8c1753"></path><path d="M543 421L635 358L584 254Z" fill="#9c1a5e" stroke="#9c1a5e"></path><path d="M584 254L633 121L557 122Z" fill="#ab1e69" stroke="#ab1e69"></path><path d="M673 242L633 121L584 254Z" fill="#6e113f" stroke="#6e113f"></path><path d="M557 122L633 121L528 75Z" fill="#510c2c" stroke="#510c2c"></path><path d="M635 358L673 242L584 254Z" fill="#600e35" stroke="#600e35"></path><path d="M263 147L251 248L394 235Z" fill="#9c1a5e" stroke="#9c1a5e"></path><path d="M394 235L293 403L439 309Z" fill="#8c1753" stroke="#8c1753"></path><path d="M326 28L263 147L413 141Z" fill="#9c1a5e" stroke="#9c1a5e"></path><path d="M413 141L263 147L394 235Z" fill="#600e35" stroke="#600e35"></path><path d="M363 492L419 462L410 415Z" fill="#9c1a5e" stroke="#9c1a5e"></path><path d="M410 415L419 462L543 421Z" fill="#6e113f" stroke="#6e113f"></path><path d="M263 147L236 220L251 248Z" fill="#36071b" stroke="#36071b"></path><path d="M251 248L293 403L394 235Z" fill="#bb2175" stroke="#bb2175"></path><path d="M183 331L293 403L251 248Z" fill="#36071b" stroke="#36071b"></path><path d="M535 0L427 0L528 75Z" fill="#9c1a5e" stroke="#9c1a5e"></path><path d="M528 75L427 0L413 141Z" fill="#9c1a5e" stroke="#9c1a5e"></path><path d="M644 0L535 0L528 75Z" fill="#510c2c" stroke="#510c2c"></path><path d="M427 0L326 28L413 141Z" fill="#7d1449" stroke="#7d1449"></path><path d="M263 147L207 198L236 220Z" fill="#bb2175" stroke="#bb2175"></path><path d="M236 220L183 331L251 248Z" fill="#600e35" stroke="#600e35"></path><path d="M147 181L207 198L263 147Z" fill="#9c1a5e" stroke="#9c1a5e"></path><path d="M293 403L363 492L410 415Z" fill="#36071b" stroke="#36071b"></path><path d="M615 600L643 447L543 421Z" fill="#440924" stroke="#440924"></path><path d="M543 421L643 447L635 358Z" fill="#440924" stroke="#440924"></path><path d="M737 329L735 219L673 242Z" fill="#510c2c" stroke="#510c2c"></path><path d="M452 600L543 421L419 462Z" fill="#ab1e69" stroke="#ab1e69"></path><path d="M737 329L673 242L635 358Z" fill="#510c2c" stroke="#510c2c"></path><path d="M673 242L735 219L633 121Z" fill="#ab1e69" stroke="#ab1e69"></path><path d="M633 121L644 0L528 75Z" fill="#510c2c" stroke="#510c2c"></path><path d="M427 0L312 0L326 28Z" fill="#bb2175" stroke="#bb2175"></path><path d="M326 28L194 0L263 147Z" fill="#ab1e69" stroke="#ab1e69"></path><path d="M759 353L737 329L635 358Z" fill="#ab1e69" stroke="#ab1e69"></path><path d="M207 198L183 331L236 220Z" fill="#2a0313" stroke="#2a0313"></path><path d="M273 600L356 566L363 492Z" fill="#440924" stroke="#440924"></path><path d="M655 0L644 0L633 121Z" fill="#600e35" stroke="#600e35"></path><path d="M729 84L655 0L633 121Z" fill="#510c2c" stroke="#510c2c"></path><path d="M735 219L729 84L633 121Z" fill="#7d1449" stroke="#7d1449"></path><path d="M643 447L759 353L635 358Z" fill="#8c1753" stroke="#8c1753"></path><path d="M737 329L900 243L735 219Z" fill="#bb2175" stroke="#bb2175"></path><path d="M735 219L863 173L729 84Z" fill="#36071b" stroke="#36071b"></path><path d="M106 64L147 181L263 147Z" fill="#36071b" stroke="#36071b"></path><path d="M207 198L147 181L183 331Z" fill="#9c1a5e" stroke="#9c1a5e"></path><path d="M273 600L363 492L254 600Z" fill="#ab1e69" stroke="#ab1e69"></path><path d="M422 600L452 600L419 462Z" fill="#7d1449" stroke="#7d1449"></path><path d="M69 397L146 406L183 331Z" fill="#9c1a5e" stroke="#9c1a5e"></path><path d="M183 331L146 406L293 403Z" fill="#9c1a5e" stroke="#9c1a5e"></path><path d="M422 600L419 462L363 492Z" fill="#7d1449" stroke="#7d1449"></path><path d="M356 566L422 600L363 492Z" fill="#36071b" stroke="#36071b"></path><path d="M312 0L194 0L326 28Z" fill="#7d1449" stroke="#7d1449"></path><path d="M106 64L86 188L147 181Z" fill="#9c1a5e" stroke="#9c1a5e"></path><path d="M147 181L86 188L183 331Z" fill="#ab1e69" stroke="#ab1e69"></path><path d="M778 479L778 461L643 447Z" fill="#36071b" stroke="#36071b"></path><path d="M643 447L778 461L759 353Z" fill="#7d1449" stroke="#7d1449"></path><path d="M900 243L863 173L735 219Z" fill="#6e113f" stroke="#6e113f"></path><path d="M452 600L615 600L543 421Z" fill="#6e113f" stroke="#6e113f"></path><path d="M648 600L778 479L643 447Z" fill="#600e35" stroke="#600e35"></path><path d="M194 0L106 64L263 147Z" fill="#7d1449" stroke="#7d1449"></path><path d="M615 600L648 600L643 447Z" fill="#ab1e69" stroke="#ab1e69"></path><path d="M254 600L363 492L293 403Z" fill="#9c1a5e" stroke="#9c1a5e"></path><path d="M356 566L273 600L422 600Z" fill="#6e113f" stroke="#6e113f"></path><path d="M900 243L759 353L900 318Z" fill="#9c1a5e" stroke="#9c1a5e"></path><path d="M900 243L737 329L759 353Z" fill="#7d1449" stroke="#7d1449"></path><path d="M729 84L875 0L655 0Z" fill="#36071b" stroke="#36071b"></path><path d="M172 556L254 600L293 403Z" fill="#9c1a5e" stroke="#9c1a5e"></path><path d="M194 0L125 0L106 64Z" fill="#8c1753" stroke="#8c1753"></path><path d="M38 375L69 397L183 331Z" fill="#8c1753" stroke="#8c1753"></path><path d="M146 406L172 556L293 403Z" fill="#8c1753" stroke="#8c1753"></path><path d="M69 397L172 556L146 406Z" fill="#510c2c" stroke="#510c2c"></path><path d="M845 463L759 353L778 461Z" fill="#bb2175" stroke="#bb2175"></path><path d="M900 510L845 463L778 479Z" fill="#ab1e69" stroke="#ab1e69"></path><path d="M778 479L845 463L778 461Z" fill="#9c1a5e" stroke="#9c1a5e"></path><path d="M900 358L900 318L759 353Z" fill="#7d1449" stroke="#7d1449"></path><path d="M86 188L38 375L183 331Z" fill="#36071b" stroke="#36071b"></path><path d="M95 600L160 573L172 556Z" fill="#ab1e69" stroke="#ab1e69"></path><path d="M0 345L38 375L86 188Z" fill="#2a0313" stroke="#2a0313"></path><path d="M95 600L172 556L0 463Z" fill="#8c1753" stroke="#8c1753"></path><path d="M172 556L160 573L254 600Z" fill="#440924" stroke="#440924"></path><path d="M845 463L900 358L759 353Z" fill="#600e35" stroke="#600e35"></path><path d="M0 123L86 188L106 64Z" fill="#36071b" stroke="#36071b"></path><path d="M0 123L0 216L86 188Z" fill="#2a0313" stroke="#2a0313"></path><path d="M900 243L900 73L863 173Z" fill="#9c1a5e" stroke="#9c1a5e"></path><path d="M863 173L900 73L729 84Z" fill="#9c1a5e" stroke="#9c1a5e"></path><path d="M648 600L772 600L778 479Z" fill="#9c1a5e" stroke="#9c1a5e"></path><path d="M0 216L0 345L86 188Z" fill="#6e113f" stroke="#6e113f"></path><path d="M38 375L0 463L69 397Z" fill="#36071b" stroke="#36071b"></path><path d="M0 0L0 123L106 64Z" fill="#6e113f" stroke="#6e113f"></path><path d="M900 73L875 0L729 84Z" fill="#2a0313" stroke="#2a0313"></path><path d="M0 345L0 371L38 375Z" fill="#440924" stroke="#440924"></path><path d="M900 73L900 0L875 0Z" fill="#6e113f" stroke="#6e113f"></path><path d="M0 463L172 556L69 397Z" fill="#600e35" stroke="#600e35"></path><path d="M160 573L95 600L254 600Z" fill="#9c1a5e" stroke="#9c1a5e"></path><path d="M772 600L900 510L778 479Z" fill="#6e113f" stroke="#6e113f"></path><path d="M845 463L900 510L900 358Z" fill="#ab1e69" stroke="#ab1e69"></path><path d="M0 371L0 463L38 375Z" fill="#8c1753" stroke="#8c1753"></path><path d="M125 0L0 0L106 64Z" fill="#2a0313" stroke="#2a0313"></path><path d="M772 600L900 600L900 510Z" fill="#36071b" stroke="#36071b"></path><path d="M0 463L0 600L95 600Z" fill="#36071b" stroke="#36071b"></path></g></svg>